<svg width="24" height="24" viewBox="0 0 24 24" fill="none" xmlns="http://www.w3.org/2000/svg">
  <g clip-path="url(#clip0)">
    <path
      d="M20.5401 2.40039H3.45884C2.87393 2.40068 2.39976 2.87515 2.3999 3.46021V20.5415C2.4002 21.1264 2.87466 21.6005 3.45972 21.6004H20.5401C21.1253 21.6005 21.5998 21.1262 21.5999 20.541C21.5999 20.5409 21.5999 20.5407 21.5999 20.5406V3.45933C21.5996 2.87441 21.1251 2.40024 20.5401 2.40039Z"
      fill="#4267B2"/>
    <path
      d="M15.6563 21.5992V14.1742H18.1595L18.5345 11.2679H15.6563V9.41694C15.6563 8.57744 15.8894 8.00542 17.0932 8.00542H18.6188V5.41309C18.3534 5.37778 17.4427 5.29883 16.3831 5.29883C14.1706 5.29883 12.6563 6.64883 12.6563 9.1291V11.2679H10.1626V14.1742H12.6563V21.5992H15.6563Z"
      fill="white"/>
  </g>
  <defs>
    <clipPath id="clip0">
      <rect width="19.2" height="19.2" fill="white" transform="translate(2.3999 2.40039)"/>
    </clipPath>
  </defs>
</svg>
