<svg width="24" height="24" viewBox="0 0 24 24" fill="none" xmlns="http://www.w3.org/2000/svg">
<path fill-rule="evenodd" clip-rule="evenodd" d="M1 6.5C1 3.46243 3.46243 1 6.5 1H17.5C20.5376 1 23 3.46243 23 6.5V17.5C23 20.5376 20.5376 23 17.5 23H6.5C3.46243 23 1 20.5376 1 17.5V6.5ZM6.5 3C4.567 3 3 4.567 3 6.5V17.5C3 19.433 4.567 21 6.5 21H17.5C19.433 21 21 19.433 21 17.5V6.5C21 4.567 19.433 3 17.5 3H6.5Z" fill="#333333"/>
<path fill-rule="evenodd" clip-rule="evenodd" d="M12 9C10.3431 9 9 10.3431 9 12C9 13.6569 10.3431 15 12 15C13.6569 15 15 13.6569 15 12C15 10.3431 13.6569 9 12 9ZM7 12C7 9.23858 9.23858 7 12 7C14.7614 7 17 9.23858 17 12C17 14.7614 14.7614 17 12 17C9.23858 17 7 14.7614 7 12Z" fill="#333333"/>
<path fill-rule="evenodd" clip-rule="evenodd" d="M16.5 6.5C16.5 7.05228 16.9477 7.5 17.5 7.5C18.0523 7.5 18.5 7.05228 18.5 6.5C18.5 5.94772 18.0523 5.5 17.5 5.5C16.9477 5.5 16.5 5.94772 16.5 6.5Z" fill="#333333"/>
</svg>
