<svg width="24" height="24" viewBox="0 0 24 24" fill="none" xmlns="http://www.w3.org/2000/svg">
<path fill-rule="evenodd" clip-rule="evenodd" d="M0 6.5C0 4.567 1.567 3 3.5 3H20.5C22.433 3 24 4.567 24 6.5V17.5C24 19.433 22.433 21 20.5 21H3.5C1.567 21 0 19.433 0 17.5V6.5ZM3.5 5C2.67157 5 2 5.67157 2 6.5V17.5C2 18.3284 2.67157 19 3.5 19H20.5C21.3284 19 22 18.3284 22 17.5V6.5C22 5.67157 21.3284 5 20.5 5H3.5ZM9 7.31546L17.5883 12L9 16.6845V7.31546ZM11 10.6845V13.3155L13.4117 12L11 10.6845Z" fill="#333333"/>
</svg>
