<svg width="24" height="24" viewBox="0 0 24 24" fill="none" xmlns="http://www.w3.org/2000/svg">
  <path
    d="M11.9999 2.40039C17.3021 2.40039 21.5999 6.69879 21.5999 12.0004C21.5999 17.3027 17.3021 21.6004 11.9999 21.6004C6.69764 21.6004 2.3999 17.3026 2.3999 12.0004C2.3999 6.69879 6.69771 2.40039 11.9999 2.40039Z"
    fill="currentColor"/>
  <path
    d="M12.2905 6.60352C8.90768 6.60352 7.20312 8.95192 7.20312 10.9097C7.20312 12.0953 7.66632 13.1501 8.66112 13.5431C8.82372 13.6073 8.97075 13.5454 9.01755 13.3709L9.16274 12.817C9.21072 12.6448 9.19214 12.5837 9.06072 12.4331C8.7733 12.106 8.59093 11.6819 8.59093 11.0812C8.59093 9.33945 9.93675 7.78002 12.0955 7.78002C14.0078 7.78002 15.0577 8.91106 15.0577 10.4213C15.0577 12.4085 14.1493 14.0861 12.8006 14.0861C12.0565 14.0861 11.4986 13.4903 11.6774 12.7577C11.891 11.8852 12.3062 10.9426 12.3062 10.312C12.3062 9.74867 11.9936 9.27704 11.3456 9.27704C10.5842 9.27704 9.97281 10.0396 9.97281 11.0614C9.97281 11.7124 10.2002 12.1522 10.2002 12.1522L9.28401 15.9088C9.01221 17.023 9.24381 18.3898 9.26299 18.5278C9.27498 18.6094 9.383 18.6286 9.43217 18.5674C9.50236 18.4787 10.409 17.3944 10.7174 16.3108C10.8049 16.0042 11.2184 14.416 11.2184 14.416C11.4656 14.8738 12.1886 15.2758 12.9572 15.2758C15.245 15.2758 16.7978 13.2557 16.7978 10.552C16.7971 8.5079 15.0091 6.60352 12.2905 6.60352Z"
    fill="white"/>
</svg>
