<?xml version="1.0" encoding="utf-8"?><svg width="396" height="411" viewBox="0 0 396 411" xmlns="http://www.w3.org/2000/svg" xmlns:xlink="http://www.w3.org/1999/xlink"><svg width="22" height="22" fill="none" viewBox="0 0 22 22" id="close-gallery" xmlns="http://www.w3.org/2000/svg"><path d="M1 1l20 20M1 21L21 1" stroke="#fff" stroke-width="2"/></svg><svg width="24" height="24" fill="none" viewBox="0 0 24 24" id="cross" x="22" y="22" xmlns="http://www.w3.org/2000/svg"><path d="M2 2l20 20M2 22L22 2" stroke="#fff" stroke-width="2"/></svg><svg width="16" height="16" fill="none" viewBox="0 0 16 16" id="dropdown" x="46" y="46" xmlns="http://www.w3.org/2000/svg"><path d="M8 12L3 5h10l-5 7z" fill="#333"/></svg><svg width="16" height="16" fill="none" viewBox="0 0 16 16" id="email" x="62" y="62" xmlns="http://www.w3.org/2000/svg"><path fill-rule="evenodd" clip-rule="evenodd" d="M2 4.771V13h12V4.771L8 9 2 4.771zM13.117 3H2.883L8 6.606 13.117 3z" fill="#757575"/></svg><svg width="24" height="24" fill="none" viewBox="0 0 24 24" id="facebook" x="78" y="78" xmlns="http://www.w3.org/2000/svg"><g clip-path="url(#eclip0)"><path d="M20.54 2.4H3.46A1.06 1.06 0 002.4 3.46v17.081a1.06 1.06 0 001.06 1.06h17.08a1.06 1.06 0 001.06-1.06V3.459A1.06 1.06 0 0020.54 2.4z" fill="#4267B2"/><path d="M15.656 21.6v-7.426h2.504l.375-2.906h-2.879V9.417c0-.84.233-1.412 1.437-1.412h1.526V5.413a20.505 20.505 0 00-2.236-.114c-2.212 0-3.727 1.35-3.727 3.83v2.139h-2.493v2.906h2.493V21.6h3z" fill="#fff"/></g><defs><clipPath id="eclip0"><path fill="#fff" transform="translate(2.4 2.4)" d="M0 0h19.2v19.2H0z"/></clipPath></defs></svg><svg width="24" height="24" fill="none" viewBox="0 0 24 24" id="instagram" x="102" y="102" xmlns="http://www.w3.org/2000/svg"><path fill-rule="evenodd" clip-rule="evenodd" d="M1 6.5A5.5 5.5 0 016.5 1h11A5.5 5.5 0 0123 6.5v11a5.5 5.5 0 01-5.5 5.5h-11A5.5 5.5 0 011 17.5v-11zM6.5 3A3.5 3.5 0 003 6.5v11A3.5 3.5 0 006.5 21h11a3.5 3.5 0 003.5-3.5v-11A3.5 3.5 0 0017.5 3h-11z" fill="#333"/><path fill-rule="evenodd" clip-rule="evenodd" d="M12 9a3 3 0 100 6 3 3 0 000-6zm-5 3a5 5 0 1110 0 5 5 0 01-10 0zm9.5-5.5a1 1 0 102 0 1 1 0 00-2 0z" fill="#333"/></svg><svg width="16" height="16" fill="none" viewBox="0 0 16 16" id="location" x="126" y="126" xmlns="http://www.w3.org/2000/svg"><path fill-rule="evenodd" clip-rule="evenodd" d="M13 5.667c0 .888-.266 1.719-.728 2.426L8 15 3.773 8.16A4.421 4.421 0 013 5.667C3 3.089 5.239 1 8 1s5 2.09 5 4.667zM8 8a2 2 0 100-4 2 2 0 000 4z" fill="#757575"/></svg><svg width="19" height="31" fill="none" viewBox="0 0 19 31" id="next" x="142" y="142" xmlns="http://www.w3.org/2000/svg"><path d="M1.667 29.667L17 15.333 1.667 1" stroke="currentColor" stroke-width="2"/></svg><svg width="16" height="16" fill="none" viewBox="0 0 16 16" id="phone" x="161" y="173" xmlns="http://www.w3.org/2000/svg"><path fill-rule="evenodd" clip-rule="evenodd" d="M3 1h10v10H3V1zm0 12h10v2H3v-2zM9 3H7v1h2V3z" fill="#757575"/></svg><svg width="24" height="24" fill="none" viewBox="0 0 24 24" id="pinterest" x="177" y="189" xmlns="http://www.w3.org/2000/svg"><path d="M12 2.4a9.6 9.6 0 019.6 9.6 9.6 9.6 0 01-9.6 9.6A9.6 9.6 0 012.4 12 9.6 9.6 0 0112 2.4z" fill="#BD081C"/><path d="M12.29 6.604c-3.382 0-5.087 2.348-5.087 4.306 0 1.185.463 2.24 1.458 2.633.163.064.31.002.357-.172l.145-.554c.048-.172.03-.233-.102-.384-.288-.327-.47-.751-.47-1.352 0-1.742 1.346-3.301 3.505-3.301 1.912 0 2.962 1.131 2.962 2.641 0 1.988-.909 3.665-2.257 3.665-.745 0-1.302-.596-1.124-1.328.214-.873.63-1.815.63-2.446 0-.563-.313-1.035-.961-1.035-.762 0-1.373.763-1.373 1.784 0 .651.227 1.091.227 1.091l-.916 3.757c-.272 1.114-.04 2.48-.021 2.619.012.081.12.1.17.04.07-.09.976-1.174 1.284-2.257.088-.307.501-1.895.501-1.895.248.458.97.86 1.74.86 2.287 0 3.84-2.02 3.84-4.724 0-2.044-1.789-3.948-4.507-3.948z" fill="#fff"/></svg><svg width="26" height="26" fill="none" viewBox="0 0 26 26" id="popup-close" x="201" y="213" xmlns="http://www.w3.org/2000/svg"><path d="M25.276 23.26L2.648.633l-1.94 1.94L23.337 25.2l1.94-1.94z" fill="#272526"/><path d="M23.338.632L.711 23.26l1.94 1.94L25.278 2.572l-1.94-1.94z" fill="#272526"/></svg><svg width="19" height="31" fill="none" viewBox="0 0 19 31" id="prev" x="227" y="239" xmlns="http://www.w3.org/2000/svg"><path d="M17.333 1.333L2 15.667 17.333 30" stroke="currentColor" stroke-width="2"/></svg><svg width="24" height="24" fill="none" viewBox="0 0 24 24" id="search" x="246" y="270" xmlns="http://www.w3.org/2000/svg"><path fill-rule="evenodd" clip-rule="evenodd" d="M10 3a7 7 0 100 14 7 7 0 000-14zm-9 7a9 9 0 1115.954 5.714l5.799 6.627-1.506 1.317-5.729-6.548A9 9 0 011 10z" fill="#333"/></svg><svg width="40" height="40" fill="none" viewBox="0 0 40 40" id="slider" x="270" y="294" xmlns="http://www.w3.org/2000/svg"><path d="M12.667 34.667L28 20.333 12.667 6" stroke="#757575" stroke-width="2"/></svg><svg width="16" height="16" fill="none" viewBox="0 0 16 16" id="time" x="310" y="334" xmlns="http://www.w3.org/2000/svg"><path fill="#757575" d="M2 4h12v3H2z"/><path fill="#757575" d="M4 2h2v4H4zm6 0h2v4h-2zM2 8h12v6H2z"/></svg><svg width="24" height="24" fill="none" viewBox="0 0 24 24" id="twitter" x="326" y="350" xmlns="http://www.w3.org/2000/svg"><path d="M22.4 5.551a8.89 8.89 0 01-2.457.674 4.24 4.24 0 001.876-2.357A8.522 8.522 0 0119.115 4.9a4.263 4.263 0 00-7.376 2.916c0 .338.028.663.099.972-3.545-.172-6.682-1.872-8.79-4.46a4.293 4.293 0 00-.583 2.156 4.27 4.27 0 001.894 3.543 4.211 4.211 0 01-1.927-.525v.047a4.284 4.284 0 003.416 4.19c-.347.095-.725.14-1.117.14a3.77 3.77 0 01-.808-.072c.553 1.688 2.12 2.93 3.985 2.97a8.568 8.568 0 01-5.287 1.819c-.35 0-.685-.016-1.02-.059a12.005 12.005 0 006.54 1.914c7.848 0 12.138-6.5 12.138-12.134 0-.189-.007-.37-.016-.552A8.507 8.507 0 0022.4 5.551z" fill="#03A9F4"/></svg><svg width="22" height="13" fill="none" viewBox="0 0 22 13" id="up" x="350" y="374" xmlns="http://www.w3.org/2000/svg"><path d="M20.474 12.263L11 1.736 1.526 12.263" stroke="#fff" stroke-width="1.583"/></svg><svg width="24" height="24" fill="none" viewBox="0 0 24 24" id="youtube" x="372" y="387" xmlns="http://www.w3.org/2000/svg"><path fill-rule="evenodd" clip-rule="evenodd" d="M0 6.5A3.5 3.5 0 013.5 3h17A3.5 3.5 0 0124 6.5v11a3.5 3.5 0 01-3.5 3.5h-17A3.5 3.5 0 010 17.5v-11zM3.5 5A1.5 1.5 0 002 6.5v11A1.5 1.5 0 003.5 19h17a1.5 1.5 0 001.5-1.5v-11A1.5 1.5 0 0020.5 5h-17zM9 7.315L17.588 12 9 16.684V7.316zm2 3.37v2.63L13.412 12 11 10.684z" fill="#333"/></svg></svg>