<?xml version="1.0" encoding="utf-8"?><svg xmlns="http://www.w3.org/2000/svg" xmlns:xlink="http://www.w3.org/1999/xlink"><symbol fill="none" viewBox="0 0 16 16" id="email" xmlns="http://www.w3.org/2000/svg"><path fill-rule="evenodd" clip-rule="evenodd" d="M2 4.771V13h12V4.771L8 9 2 4.771zM13.117 3H2.883L8 6.606 13.117 3z" fill="currentColor"/></symbol><symbol fill="none" viewBox="0 0 24 24" id="facebook" xmlns="http://www.w3.org/2000/svg"><g clip-path="url(#bclip0)"><path d="M20.54 2.4H3.46A1.06 1.06 0 002.4 3.46v17.081a1.06 1.06 0 001.06 1.06h17.08a1.06 1.06 0 001.06-1.06V3.459A1.06 1.06 0 0020.54 2.4z" fill="currentColor"/><path d="M15.656 21.6v-7.426h2.504l.375-2.906h-2.879V9.417c0-.84.233-1.412 1.437-1.412h1.526V5.413a20.505 20.505 0 00-2.236-.114c-2.212 0-3.727 1.35-3.727 3.83v2.139h-2.493v2.906h2.493V21.6h3z" fill="#fff"/></g><defs><clipPath id="bclip0"><path fill="#fff" transform="translate(2.4 2.4)" d="M0 0h19.2v19.2H0z"/></clipPath></defs></symbol><symbol fill="none" viewBox="0 0 16 16" id="location" xmlns="http://www.w3.org/2000/svg"><path fill-rule="evenodd" clip-rule="evenodd" d="M13 5.667c0 .888-.266 1.719-.728 2.426L8 15 3.773 8.16A4.421 4.421 0 013 5.667C3 3.089 5.239 1 8 1s5 2.09 5 4.667zM8 8a2 2 0 100-4 2 2 0 000 4z" fill="currentColor"/></symbol><symbol fill="none" viewBox="0 0 170 20" id="logo" xmlns="http://www.w3.org/2000/svg"><path d="M77.283.52v19.07l-13.42-9.73L77.283.52zm-16.09.001h2.67v19.071h-2.67z" fill="#E02345"/><path d="M12.935 9.474c1.116.312 1.995.88 2.636 1.703.64.806.961 1.83.961 3.076 0 1.666-.632 2.947-1.895 3.845-1.245.897-3.066 1.345-5.465 1.345H0V.22h8.623c2.197 0 3.89.44 5.08 1.318 1.209.879 1.813 2.096 1.813 3.652 0 1.007-.238 1.877-.714 2.61a4.47 4.47 0 01-1.867 1.674zM2.746 2.444v6.152h5.63c1.41 0 2.49-.257 3.24-.77.77-.53 1.154-1.3 1.154-2.306 0-1.007-.385-1.767-1.154-2.28-.75-.53-1.83-.796-3.24-.796h-5.63zM9.062 17.22c1.557 0 2.728-.257 3.516-.77.787-.512 1.18-1.317 1.18-2.416 0-2.142-1.565-3.213-4.696-3.213H2.746v6.399h6.316zm23.97-2.583H22.816l-2.114 4.806h-2.829L26.58.22h2.718l8.733 19.223h-2.883l-2.115-4.806zm-.96-2.197l-4.148-9.42-4.146 9.42h8.293zm17.153 7.223c-1.922 0-3.661-.421-5.217-1.264-1.538-.86-2.747-2.032-3.625-3.515-.88-1.5-1.319-3.185-1.319-5.053 0-1.867.44-3.542 1.319-5.025a9.244 9.244 0 013.652-3.515C45.591.43 47.331 0 49.253 0c1.501 0 2.874.256 4.12.769a8.299 8.299 0 013.185 2.224l-1.785 1.73c-1.447-1.52-3.25-2.279-5.41-2.279-1.428 0-2.719.32-3.872.961a7.039 7.039 0 00-2.72 2.664c-.64 1.117-.96 2.371-.96 3.762 0 1.392.32 2.655.96 3.79a7.099 7.099 0 002.72 2.636c1.153.641 2.444.962 3.872.962 2.142 0 3.945-.77 5.41-2.307l1.785 1.73a8.521 8.521 0 01-3.213 2.252c-1.245.513-2.618.769-4.12.769zm39.427 0c-1.446 0-2.847-.22-4.202-.66-1.336-.457-2.389-1.043-3.158-1.757l1.016-2.142c.733.66 1.666 1.2 2.801 1.62 1.154.403 2.335.604 3.543.604 1.593 0 2.783-.265 3.57-.796.787-.55 1.18-1.272 1.18-2.17 0-.659-.219-1.19-.658-1.592-.421-.421-.952-.742-1.593-.961-.622-.22-1.51-.467-2.664-.742-1.446-.348-2.618-.696-3.515-1.043a5.987 5.987 0 01-2.28-1.593c-.622-.732-.933-1.712-.933-2.939 0-1.025.266-1.95.796-2.773.55-.824 1.373-1.483 2.472-1.978C86.126.247 87.489 0 89.119 0c1.135 0 2.252.146 3.35.44 1.099.292 2.041.713 2.829 1.263L94.39 3.9a9.608 9.608 0 00-2.58-1.154 9.338 9.338 0 00-2.692-.412c-1.556 0-2.728.284-3.515.852-.77.567-1.154 1.3-1.154 2.197 0 .659.22 1.199.66 1.62.439.403.979.723 1.62.961.659.22 1.547.458 2.663.714 1.447.348 2.61.696 3.488 1.044.879.347 1.63.878 2.252 1.592.64.714.961 1.675.961 2.884a4.974 4.974 0 01-.824 2.773c-.549.824-1.382 1.483-2.499 1.978-1.117.476-2.49.714-4.119.714zm15.003-17.054h-6.59V.219h15.9v2.39h-6.591v16.834h-2.719V2.61zm23.583 12.028h-10.215l-2.115 4.806h-2.829L120.785.22h2.719l8.733 19.223h-2.884l-2.115-4.806zm-.961-2.197l-4.146-9.42-4.147 9.42h8.293zm21.878-2.718h2.636v7.497c-.952.787-2.059 1.391-3.322 1.812a12.429 12.429 0 01-3.955.632c-1.941 0-3.689-.421-5.245-1.264-1.556-.86-2.783-2.032-3.68-3.515-.879-1.5-1.318-3.185-1.318-5.053 0-1.867.439-3.551 1.318-5.053a9.44 9.44 0 013.68-3.515C139.843.421 141.61 0 143.569 0c1.538 0 2.929.256 4.174.769a8.397 8.397 0 013.213 2.197l-1.702 1.703c-1.538-1.483-3.397-2.225-5.575-2.225-1.465 0-2.783.32-3.955.961a6.856 6.856 0 00-2.719 2.637c-.659 1.116-.988 2.38-.988 3.79 0 1.39.329 2.654.988 3.79a7.11 7.11 0 002.719 2.636c1.172.64 2.481.96 3.927.96 1.721 0 3.222-.411 4.504-1.235V9.722zM170 17.054v2.39h-13.951V.22h13.567v2.389h-10.82v5.904h9.639v2.335h-9.639v6.206H170z" fill="#0D0D0D"/></symbol><symbol fill="none" viewBox="0 0 16 16" id="phone" xmlns="http://www.w3.org/2000/svg"><path fill-rule="evenodd" clip-rule="evenodd" d="M3 1h10v10H3V1zm0 12h10v2H3v-2zM9 3H7v1h2V3z" fill="currentColor"/></symbol><symbol fill="none" viewBox="0 0 24 24" id="pinterest" xmlns="http://www.w3.org/2000/svg"><path d="M12 2.4a9.6 9.6 0 019.6 9.6 9.6 9.6 0 01-9.6 9.6A9.6 9.6 0 012.4 12 9.6 9.6 0 0112 2.4z" fill="currentColor"/><path d="M12.29 6.604c-3.382 0-5.087 2.348-5.087 4.306 0 1.185.463 2.24 1.458 2.633.163.064.31.002.357-.172l.145-.554c.048-.172.03-.233-.102-.384-.288-.327-.47-.751-.47-1.352 0-1.742 1.346-3.301 3.505-3.301 1.912 0 2.962 1.131 2.962 2.641 0 1.988-.909 3.665-2.257 3.665-.745 0-1.302-.596-1.124-1.328.214-.873.63-1.815.63-2.446 0-.563-.313-1.035-.961-1.035-.762 0-1.373.763-1.373 1.784 0 .651.227 1.091.227 1.091l-.916 3.757c-.272 1.114-.04 2.48-.021 2.619.012.081.12.1.17.04.07-.09.976-1.174 1.284-2.257.088-.307.501-1.895.501-1.895.248.458.97.86 1.74.86 2.287 0 3.84-2.02 3.84-4.724 0-2.044-1.789-3.948-4.507-3.948z" fill="#fff"/></symbol><symbol fill="none" viewBox="0 0 28 28" id="play" xmlns="http://www.w3.org/2000/svg"><circle cx="14" cy="14" r="13" stroke="#fff" stroke-width="2"/><path d="M21 14L9.8 20.3V7.7L21 14z" fill="#fff"/></symbol><symbol fill="none" viewBox="0 0 26 26" id="popup-close" xmlns="http://www.w3.org/2000/svg"><path d="M25.276 23.26L2.648.633l-1.94 1.94L23.337 25.2l1.94-1.94z" fill="#272526"/><path d="M23.338.632L.711 23.26l1.94 1.94L25.278 2.572l-1.94-1.94z" fill="#272526"/></symbol><symbol fill="none" viewBox="0 0 50 10" id="report-arrow" xmlns="http://www.w3.org/2000/svg"><g clip-path="url(#iclip0)" fill="#E02345"><path d="M50 5l-8 5V0l8 5z"/><path fill-rule="evenodd" clip-rule="evenodd" d="M-1 4h43v2H-1V4z"/></g><defs><clipPath id="iclip0"><path d="M0 0h50v10H0V0z" fill="#fff"/></clipPath></defs></symbol><symbol fill="none" viewBox="0 0 18 18" id="reset" xmlns="http://www.w3.org/2000/svg"><path d="M1.5 1.5l15 15m-15 0l15-15" stroke="#fff" stroke-width="1.5"/></symbol><symbol fill="none" viewBox="0 0 24 24" id="search" xmlns="http://www.w3.org/2000/svg"><path fill-rule="evenodd" clip-rule="evenodd" d="M10 3a7 7 0 100 14 7 7 0 000-14zm-9 7a9 9 0 1115.954 5.714l5.799 6.627-1.506 1.317-5.729-6.548A9 9 0 011 10z" fill="currentColor"/></symbol><symbol fill="none" viewBox="0 0 16 16" id="time" xmlns="http://www.w3.org/2000/svg"><path fill="currentColor" d="M2 4h12v3H2z"/><path fill="currentColor" d="M4 2h2v4H4zm6 0h2v4h-2zM2 8h12v6H2z"/></symbol><symbol fill="none" viewBox="0 0 24 24" id="twitter" xmlns="http://www.w3.org/2000/svg"><path d="M22.4 5.551a8.89 8.89 0 01-2.457.674 4.24 4.24 0 001.876-2.357A8.522 8.522 0 0119.115 4.9a4.263 4.263 0 00-7.376 2.916c0 .338.028.663.099.972-3.545-.172-6.682-1.872-8.79-4.46a4.293 4.293 0 00-.583 2.156 4.27 4.27 0 001.894 3.543 4.211 4.211 0 01-1.927-.525v.047a4.284 4.284 0 003.416 4.19c-.347.095-.725.14-1.117.14a3.77 3.77 0 01-.808-.072c.553 1.688 2.12 2.93 3.985 2.97a8.568 8.568 0 01-5.287 1.819c-.35 0-.685-.016-1.02-.059a12.005 12.005 0 006.54 1.914c7.848 0 12.138-6.5 12.138-12.134 0-.189-.007-.37-.016-.552A8.507 8.507 0 0022.4 5.551z" fill="currentColor"/></symbol></svg>