<svg width="170" height="20" viewBox="0 0 170 20" fill="none" xmlns="http://www.w3.org/2000/svg">
<path d="M77.2832 0.519989L77.2832 19.5908L63.863 9.8608L77.2832 0.519989Z" fill="#E02345"/>
<rect x="61.1934" y="0.520508" width="2.66992" height="19.0708" fill="#E02345"/>
<path d="M12.9346 9.47439C14.0514 9.78563 14.9302 10.3532 15.571 11.177C16.2117 11.9826 16.5321 13.0078 16.5321 14.2528C16.5321 15.9188 15.9005 17.2004 14.6372 18.0975C13.3923 18.9946 11.5707 19.4431 9.17231 19.4431L0 19.4431L0 0.219695L8.62307 0.219695C10.82 0.219695 12.5135 0.659087 13.7035 1.53787C14.9119 2.41666 15.516 3.63414 15.516 5.19032C15.516 6.19726 15.278 7.06689 14.802 7.79921C14.3443 8.53153 13.7218 9.08992 12.9346 9.47439ZM2.7462 2.44412L2.7462 8.59561L8.37591 8.59561C9.78563 8.59561 10.8658 8.33929 11.6164 7.82667C12.3854 7.29574 12.7698 6.5268 12.7698 5.51986C12.7698 4.51292 12.3854 3.75314 11.6164 3.24052C10.8658 2.70958 9.78563 2.44412 8.37591 2.44412L2.7462 2.44412ZM9.06246 17.2187C10.6186 17.2187 11.7904 16.9624 12.5776 16.4497C13.3648 15.9371 13.7585 15.1316 13.7585 14.0331C13.7585 11.891 12.1931 10.82 9.06246 10.82L2.7462 10.82L2.7462 17.2187L9.06246 17.2187Z" fill="#0D0D0D"/>
<path d="M33.0323 14.6372L22.8164 14.6372L20.7018 19.4431L17.8733 19.4431L26.5787 0.219695L29.2974 0.219695L38.0304 19.4431L35.1469 19.4431L33.0323 14.6372ZM32.0711 12.4403L27.9243 3.02082L23.7776 12.4403L32.0711 12.4403Z" fill="#0D0D0D"/>
<path d="M49.2254 19.6628C47.3031 19.6628 45.5638 19.2417 44.0076 18.3995C42.4698 17.5391 41.2614 16.3674 40.3827 14.8844C39.5039 13.3831 39.0645 11.6988 39.0645 9.8314C39.0645 7.96398 39.5039 6.2888 40.3827 4.80585C41.2614 3.30459 42.4789 2.13288 44.0351 1.29071C45.5913 0.430238 47.3305 0 49.2529 0C50.7541 0 52.1272 0.256312 53.3722 0.768936C54.6171 1.26325 55.679 2.00472 56.5578 2.99336L54.7727 4.72346C53.3264 3.2039 51.5231 2.44412 49.3627 2.44412C47.9347 2.44412 46.644 2.76451 45.4906 3.40529C44.3372 4.04607 43.4309 4.93401 42.7719 6.0691C42.1311 7.18589 41.8107 8.43999 41.8107 9.8314C41.8107 11.2228 42.1311 12.4861 42.7719 13.6212C43.4309 14.7379 44.3372 15.6167 45.4906 16.2575C46.644 16.8983 47.9347 17.2187 49.3627 17.2187C51.5048 17.2187 53.3081 16.4497 54.7727 14.9119L56.5578 16.642C55.679 17.6306 54.608 18.3812 53.3447 18.8939C52.0998 19.4065 50.7267 19.6628 49.2254 19.6628Z" fill="#0D0D0D"/>
<path d="M88.652 19.6628C87.2057 19.6628 85.8051 19.4431 84.4503 19.0037C83.1138 18.546 82.0611 17.9601 81.2922 17.2461L82.3083 15.1041C83.0406 15.7632 83.9743 16.3033 85.1094 16.7244C86.2628 17.1271 87.4436 17.3285 88.652 17.3285C90.2448 17.3285 91.4348 17.0631 92.222 16.5321C93.0093 15.9829 93.4029 15.2597 93.4029 14.3626C93.4029 13.7035 93.1832 13.1726 92.7438 12.7698C92.3227 12.3487 91.7918 12.0284 91.151 11.8087C90.5286 11.589 89.6406 11.3418 88.4872 11.0672C87.0409 10.7193 85.8692 10.3715 84.9721 10.0236C84.0933 9.67578 83.3335 9.14485 82.6927 8.43083C82.0703 7.69851 81.759 6.71904 81.759 5.4924C81.759 4.46715 82.0245 3.5426 82.5554 2.71874C83.1047 1.89488 83.9285 1.23579 85.027 0.741473C86.1255 0.247158 87.4894 0 89.1188 0C90.2539 0 91.3707 0.146464 92.4692 0.439391C93.5677 0.732319 94.5105 1.1534 95.2978 1.70264L94.3915 3.8996C93.586 3.38698 92.7255 3.00251 91.8101 2.7462C90.8947 2.47158 89.9976 2.33427 89.1188 2.33427C87.5627 2.33427 86.3909 2.61804 85.6037 3.18559C84.8348 3.75314 84.4503 4.48546 84.4503 5.38255C84.4503 6.04164 84.67 6.58173 85.1094 7.00281C85.5488 7.40559 86.0889 7.72598 86.7296 7.96398C87.3887 8.18368 88.2767 8.42168 89.3935 8.67799C90.8398 9.02584 92.0023 9.3737 92.8811 9.72155C93.7599 10.0694 94.5105 10.6003 95.133 11.3143C95.7738 12.0284 96.0942 12.9895 96.0942 14.1979C96.0942 15.2048 95.8196 16.1293 95.2703 16.9715C94.7211 17.7954 93.8881 18.4545 92.7713 18.9488C91.6545 19.4248 90.2814 19.6628 88.652 19.6628Z" fill="#0D0D0D"/>
<path d="M103.655 2.60889L97.0644 2.60889V0.219695L112.965 0.219695V2.60889L106.374 2.60889L106.374 19.4431L103.655 19.4431L103.655 2.60889Z" fill="#0D0D0D"/>
<path d="M127.238 14.6372L117.023 14.6372L114.908 19.4431L112.079 19.4431L120.785 0.219695L123.504 0.219695L132.237 19.4431L129.353 19.4431L127.238 14.6372ZM126.277 12.4403L122.131 3.02082L117.984 12.4403L126.277 12.4403Z" fill="#0D0D0D"/>
<path d="M148.155 9.72155L150.791 9.72155V17.2187C149.839 18.0059 148.732 18.6101 147.469 19.0312C146.205 19.4523 144.887 19.6628 143.514 19.6628C141.573 19.6628 139.825 19.2417 138.269 18.3995C136.713 17.5391 135.486 16.3674 134.589 14.8844C133.71 13.3831 133.271 11.6988 133.271 9.8314C133.271 7.96398 133.71 6.27964 134.589 4.77839C135.486 3.27713 136.713 2.10542 138.269 1.26325C139.843 0.421084 141.61 0 143.569 0C145.107 0 146.498 0.256312 147.743 0.768936C149.006 1.26325 150.077 1.99557 150.956 2.9659L149.254 4.66854C147.716 3.18559 145.857 2.44412 143.679 2.44412C142.214 2.44412 140.896 2.76451 139.724 3.40529C138.571 4.02776 137.665 4.90654 137.005 6.04164C136.346 7.15843 136.017 8.42168 136.017 9.8314C136.017 11.2228 136.346 12.4861 137.005 13.6212C137.665 14.7379 138.571 15.6167 139.724 16.2575C140.896 16.8983 142.205 17.2187 143.651 17.2187C145.372 17.2187 146.873 16.8067 148.155 15.9829V9.72155Z" fill="#0D0D0D"/>
<path d="M170 17.0539L170 19.4431L156.049 19.4431L156.049 0.219695L169.616 0.219695V2.60889L158.796 2.60889L158.796 8.51322L168.435 8.51322V10.8475L158.796 10.8475V17.0539L170 17.0539Z" fill="#0D0D0D"/>
</svg>
