<svg width="24" height="24" viewBox="0 0 24 24" fill="none" xmlns="http://www.w3.org/2000/svg">
  <path
    d="M22.4001 5.55148C21.6266 5.89078 20.8024 6.11568 19.9431 6.22488C20.8271 5.69708 21.5018 4.86768 21.819 3.86798C20.9948 4.35938 20.0848 4.70648 19.115 4.90018C18.3324 4.06688 17.217 3.55078 16.0002 3.55078C13.6394 3.55078 11.7388 5.46698 11.7388 7.81608C11.7388 8.15408 11.7674 8.47908 11.8376 8.78848C8.2925 8.61558 5.1556 6.91648 3.0483 4.32818C2.6804 4.96648 2.4646 5.69708 2.4646 6.48358C2.4646 7.96038 3.2251 9.26948 4.3587 10.0274C3.6736 10.0144 3.0015 9.81548 2.4321 9.50218C2.4321 9.51518 2.4321 9.53208 2.4321 9.54898C2.4321 11.6212 3.9102 13.3424 5.8485 13.7389C5.5014 13.8338 5.1231 13.8793 4.7305 13.8793C4.4575 13.8793 4.1819 13.8637 3.9232 13.8065C4.4757 15.4952 6.0435 16.7367 7.9077 16.777C6.4569 17.9119 4.6148 18.5957 2.6206 18.5957C2.2709 18.5957 1.9355 18.5801 1.6001 18.5372C3.489 19.7553 5.7276 20.4508 8.1417 20.4508C15.9885 20.4508 20.2785 13.9508 20.2785 8.31658C20.2785 8.12808 20.272 7.94608 20.2629 7.76538C21.1092 7.16478 21.8203 6.41468 22.4001 5.55148Z"
    fill="currentColor"/>
</svg>
